<?xml version="1.0" ?><svg height="20" version="1.1" viewBox="0 0 20 20" width="20" xmlns="http://www.w3.org/2000/svg"><g id="layer1"><path d="M 3 0 L 3 3 L 4 3 L 4 0 L 3 0 z M 16 0 L 16 3 L 17 3 L 17 0 L 16 0 z M 0 1 L 0 5 L 0 6 L 0 20 L 20 20 L 20 6 L 20 5 L 20 1 L 18 1 L 18 2 L 19 2 L 19 5 L 1 5 L 1 2 L 2 2 L 2 1 L 0 1 z M 5 1 L 5 2 L 15 2 L 15 1 L 5 1 z M 1 6 L 19 6 L 19 19 L 1 19 L 1 6 z M 3 10 L 3 11 L 5 11 L 5 10 L 3 10 z M 6 10 L 6 11 L 8 11 L 8 10 L 6 10 z M 9 10 L 9 11 L 11 11 L 11 10 L 9 10 z M 12 10 L 12 11 L 14 11 L 14 10 L 12 10 z M 15 10 L 15 11 L 17 11 L 17 10 L 15 10 z M 3 12 L 3 13 L 5 13 L 5 12 L 3 12 z M 6 12 L 6 13 L 8 13 L 8 12 L 6 12 z M 9 12 L 9 13 L 11 13 L 11 12 L 9 12 z M 12 12 L 12 13 L 14 13 L 14 12 L 12 12 z M 15 12 L 15 13 L 17 13 L 17 12 L 15 12 z " style="fill:#222222; fill-opacity:1; stroke:none; stroke-width:0px;"/></g></svg>